<svg width="576" height="200" viewBox="0 0 576 200" fill="none" xmlns="http://www.w3.org/2000/svg">
<path d="M450.438 19.3657C450.438 30.0611 441.768 38.7315 431.072 38.7315C421.603 38.7315 413.722 31.9357 412.039 22.9554C414.544 27.2177 419.178 30.0787 424.48 30.0787C432.444 30.0787 438.901 23.6221 438.901 15.6574C438.901 7.69278 432.444 1.23615 424.48 1.23615C424.401 1.23615 424.323 1.23678 424.244 1.23803C426.368 0.437811 428.669 0 431.072 0C441.768 0 450.438 8.67033 450.438 19.3657Z" fill="white"/>
<path d="M404.782 19.3658C404.782 30.0612 396.112 38.7315 385.416 38.7315C375.947 38.7315 368.066 31.9358 366.383 22.9555C368.888 27.2178 373.522 30.0788 378.824 30.0788C386.788 30.0788 393.245 23.6222 393.245 15.6575C393.245 7.69286 386.788 1.23623 378.824 1.23623C378.745 1.23623 378.667 1.23686 378.588 1.23811C380.712 0.437877 383.013 5.51857e-05 385.416 5.51857e-05C396.112 5.51857e-05 404.782 8.67039 404.782 19.3658Z" fill="white"/>
<path d="M408.181 32.6749C403.583 40.6403 394.977 46.001 385.118 46.001C372.49 46.001 361.916 37.2043 359.19 25.4042H294.917V73.3747H370.704C370.704 92.6764 361.763 101.192 295.059 101.334L299.458 156.4C400.65 156.258 424.494 136.673 424.494 65.285V45.1374C417.538 43.3187 411.691 38.7558 408.181 32.6749Z" fill="white"/>
<path fill-rule="evenodd" clip-rule="evenodd" d="M442.802 43.3667V152.143H495.74V146.04H519.583V152.143L572.521 152.285V24.2688H457.408C455.845 32.7047 450.303 39.744 442.802 43.3667ZM519.583 98.4953V70.1104H495.74V98.4953H519.583Z" fill="white"/>
<path fill-rule="evenodd" clip-rule="evenodd" d="M137.523 97.218V140.363C134.968 139.228 130.852 137.808 127.588 137.099C125.459 148.595 113.253 155.265 87.5652 155.265C62.1607 155.265 47.4006 141.498 47.4006 122.764C47.4006 100.624 61.1672 89.2702 79.3336 89.2702V77.2066H49.8133V37.184H79.3336V21.1465H128.297V37.184H137.523V77.2066H128.297V95.3729C130.505 95.7041 133.228 96.2927 135.597 96.8051C136.274 96.9515 136.923 97.0918 137.523 97.218ZM91.8229 122.197V119.216C89.2683 118.223 87.4232 118.081 86.004 118.081C81.3205 118.081 78.7659 119.5 78.7659 122.764C78.7659 125.461 81.1786 127.164 84.8686 127.164C87.2813 127.164 91.8229 126.029 91.8229 122.197Z" fill="white"/>
<path d="M46.8329 150.723L5.10712 151.859C3.40403 137.524 2.6944 117.371 2.6944 96.5083C2.6944 67.4138 4.11365 37.3259 6.24251 20.8627L47.8263 22.8496C45.1298 38.0355 43.7105 64.2915 43.7105 90.5475C43.7105 112.972 44.5621 135.396 46.8329 150.723Z" fill="white"/>
<path d="M246.379 47.6864L234.031 51.3764C232.186 45.5575 229.49 39.029 226.083 32.3585L237.863 29.3781C241.269 35.6228 244.25 42.5771 246.379 47.6864Z" fill="white"/>
<path d="M229.631 53.6472L216.858 57.3372C215.155 51.5183 212.601 45.1317 209.194 38.4613L221.258 35.3389C224.664 41.5836 227.786 48.396 229.631 53.6472Z" fill="white"/>
<path d="M270.931 77.2066L281.576 134.118C264.971 149.02 245.527 155.265 215.865 155.265C180.809 155.265 154.412 139.369 154.412 110.133V21.1465H213.168V32.6424L202.808 35.3389C207.917 45.8413 210.756 52.6537 213.168 60.3176V83.1674C213.168 92.1087 220.123 98.3534 232.47 98.3534C246.52 98.3534 257.165 89.8379 270.931 77.2066Z" fill="white"/>
<path d="M261.278 171.01L265.575 170.03C264.934 168.107 264.105 166.147 263.087 164.526L258.978 165.43C259.77 167.089 260.637 168.974 261.278 171.01Z" fill="white"/>
<path d="M256.791 197.889L264.784 195.099C260.373 186.466 258.526 179.303 257.432 171.877L260.373 171.198C259.694 169.313 258.978 167.391 258.036 165.657L253.964 166.637C254.161 167.032 254.33 167.426 254.52 167.871L254.605 168.069L248.875 169.012C250.194 180.661 253.625 191.367 256.791 197.889Z" fill="white"/>
<path d="M237.791 197.889C240.845 191.367 244.2 180.661 245.67 169.012L237.678 167.655C236.547 176.702 234.926 184.845 229.837 195.061L237.791 197.889Z" fill="white"/>
<path d="M148.834 171.764L144.31 172.782C143.632 170.67 142.727 168.672 141.86 166.976L146.195 165.996C147.289 167.692 148.156 169.728 148.834 171.764Z" fill="white"/>
<path d="M143.368 173.008L138.882 173.988C138.241 172.028 137.449 169.954 136.62 168.182L140.918 167.164C141.86 169.012 142.652 171.01 143.368 173.008Z" fill="white"/>
<path d="M149.174 182.621L145.894 189.708C140.767 187.673 134.735 185.411 130.4 184.016V199.472H122.558V166.524H130.4V175.873C137.298 177.984 142.991 179.944 149.174 182.621Z" fill="white"/>
<path d="M70.4588 173.083C70.4588 181.528 69.554 190.915 68.5362 199.095L60.2425 198.077C61.3357 191.895 62.1274 185.411 62.3159 180.321H55.8317C53.8714 186.805 51.2702 193.026 47.7265 199.133L39.7721 196.268C43.2781 191.028 45.8039 185.788 47.6511 180.321H40.413V173.083H49.6491C50.1392 170.821 50.5539 168.484 50.8555 166.034L58.9607 166.863C58.5837 168.974 58.2067 171.01 57.7166 173.083H70.4588Z" fill="white"/>
<path d="M33.5141 170.859C32.3077 176.702 29.9327 183.488 27.8216 188.351L20.2065 186.542C21.4128 184.393 22.6192 181.339 23.2978 179.228L13.9108 179.944V188.841C13.9108 190.877 14.7025 191.179 17.2283 191.179C19.0378 191.179 25.145 191.065 30.8752 190.802L31.2522 198.266C27.0676 198.492 20.8851 198.605 17.0021 198.605C9.99014 198.605 6.25798 197.663 6.25798 190.839V180.51L0.490082 180.962L0 173.272L6.25798 172.819V166.75H13.9108V172.291L33.5141 170.859Z" fill="white"/>
<path d="M90.5899 179.19L95.0006 172.857C91.2307 170.218 87.7625 168.409 83.7287 166.787L79.5819 173.234C83.3894 174.742 86.7446 176.589 90.5899 179.19Z" fill="white"/>
<path d="M84.5958 199.095C95.4907 195.438 104.463 189.557 111.023 182.018L106.31 175.27C98.959 183.903 90.703 188.803 80.4866 192.046L84.5958 199.095Z" fill="white"/>
<path d="M179.596 188.276C183.517 182.847 187.136 176.702 188.531 168.145H157.241V175.383H178.352C177.221 178.097 175.789 180.623 173.942 183.111C174.319 181.716 174.658 180.284 174.922 178.813L166.892 178.022C165.686 186.089 162.858 190.877 158.372 196.306L166.025 199.698C168.852 195.966 171.491 191.103 173.301 185.335L179.596 188.276Z" fill="white"/>
<path d="M221.053 176.815H195.531V169.313H221.053V176.815Z" fill="white"/>
<path d="M224.295 196.607H192.779V188.992H224.295V196.607Z" fill="white"/>
<path d="M301.691 185.901H270.627V177.984H301.691V185.901Z" fill="white"/>
<path d="M336.449 180.585H341.99V173.422H337.881C338.221 171.349 338.522 169.163 338.711 166.976L330.605 166.297C330.342 168.786 330.078 171.123 329.738 173.422H320.879C320.955 171.349 321.03 169.276 321.181 167.127L313.226 166.863C313.151 168.974 313.113 171.123 313.076 173.422H308.212V180.585H313.113C313.226 183.601 313.377 186.73 313.603 190.01L321.294 189.331C321.03 186.315 320.917 183.45 320.842 180.585H328.419C327.099 186.165 325.101 191.593 321.746 197.55L329.437 199.849C332.189 194.27 334.677 187.936 336.449 180.585Z" fill="white"/>
<path d="M379.35 185.901H348.286V177.984H379.35V185.901Z" fill="white"/>
<path d="M389.83 187.748L397.784 187.145C397.445 183.676 397.257 180.246 397.257 176.778C397.257 173.95 397.37 171.123 397.558 168.22L389.415 167.805C389.302 170.143 389.227 172.668 389.227 175.345C389.227 179.19 389.378 183.375 389.83 187.748Z" fill="white"/>
<path d="M407.247 199.736C412.902 191.329 416.521 180.547 417.727 167.843L409.433 167.164C408.453 179.53 405.777 187.936 399.594 196.72L407.247 199.736Z" fill="white"/>
<path d="M457.009 185.901H425.945V177.984H457.009V185.901Z" fill="white"/>
<path d="M493.011 173.121L497.535 172.065C496.856 170.067 495.989 167.994 494.896 166.297L490.561 167.24C491.428 168.974 492.295 170.934 493.011 173.121Z" fill="white"/>
<path d="M487.583 174.29L492.069 173.309C491.352 171.349 490.561 169.313 489.581 167.504L485.321 168.522C486.15 170.256 486.942 172.367 487.583 174.29Z" fill="white"/>
<path d="M479.741 177.72L483.624 171.462C479.93 169.238 476.122 167.428 471.975 166.109L468.281 172.48C472.352 173.913 476.16 175.647 479.741 177.72Z" fill="white"/>
<path d="M474.614 186.692L478.573 180.547C474.803 178.323 470.769 176.476 466.886 175.232L463.116 181.452C467.263 182.847 471.033 184.581 474.614 186.692Z" fill="white"/>
<path d="M471.561 200C481.815 196.042 490.41 190.123 497.46 182.395L492.898 175.76C485.547 183.865 477.442 189.52 467.225 193.101L471.561 200Z" fill="white"/>
<path d="M534.14 173.422C532.595 180.434 530.333 185.825 527.845 190.877L520.908 188.427C522.454 185.825 523.66 183.45 524.527 181.264L518.646 181.867L522.002 198.304L514.65 199.321L511.257 182.621L505.075 183.262L504.359 176.363L509.863 175.797L508.92 170.972L516.234 169.916L517.251 175.081L534.14 173.422Z" fill="white"/>
<path d="M567.541 199.02L575.684 197.097C572.782 189.708 569.841 183.526 566.26 178.022L558.682 180.171C560.341 182.809 561.849 185.599 563.282 188.615L552.613 189.821C554.008 185.26 556.835 175.76 558.871 167.843L550.879 166.75C548.932 175.115 546.249 183.971 543.681 192.447C543.066 194.475 542.458 196.482 541.869 198.454L566.26 195.514C566.674 196.683 567.089 197.813 567.541 199.02Z" fill="white"/>
</svg>
