<svg width="450" height="240" viewBox="0 0 450 240" fill="none" xmlns="http://www.w3.org/2000/svg">
<path d="M108.099 37.3263C118.394 37.3263 126.74 28.9705 126.74 18.6632C126.74 8.35578 118.394 0 108.099 0C105.786 0 103.571 0.421935 101.527 1.19313C101.602 1.19193 101.678 1.19132 101.753 1.19132C109.42 1.19132 115.635 7.41371 115.635 15.0894C115.635 22.7651 109.42 28.9875 101.753 28.9875C96.6499 28.9875 92.1898 26.2303 89.7779 22.1226C91.3981 30.7771 98.9846 37.3263 108.099 37.3263Z" fill="white"/>
<path d="M64.1523 37.3263C74.4472 37.3263 82.7929 28.9706 82.7929 18.6632C82.7929 8.35581 74.4472 3.53277e-05 64.1523 3.53277e-05C61.8389 3.53277e-05 59.6239 0.421967 57.5799 1.19316C57.6553 1.19195 57.7308 1.19135 57.8065 1.19135C65.473 1.19135 71.6879 7.41373 71.6879 15.0894C71.6879 22.7651 65.473 28.9875 57.8065 28.9875C52.7032 28.9875 48.2431 26.2303 45.8312 22.1226C47.4514 30.7771 55.0379 37.3263 64.1523 37.3263Z" fill="white"/>
<path d="M129.663 32.7864C125.082 39.7421 117.208 44.3321 108.264 44.3321C98.7747 44.3321 90.4907 39.1659 86.0646 31.4895C81.6386 39.1659 73.3546 44.3321 63.8654 44.3321C57.3446 44.3321 51.3928 41.8924 46.8711 37.8751C17.6736 53.9443 0 85.1606 0 123.434C0 164.922 28.6882 188.174 68.5329 188.174C99.9534 188.174 119.307 180.196 143.213 160.591L154.142 90.3798H82.6494L76.5019 128.905H99.498L97.6765 139.847C93.8059 144.406 81.7386 145.546 76.2742 145.546C58.9702 145.546 50.7736 132.552 50.7736 116.367C50.7736 94.2551 63.5239 68.4957 88.5691 68.4957C100.181 68.4957 109.744 73.2829 117.03 82.4012L154.598 53.6784C147.15 43.9194 138.965 37.1668 129.663 32.7864Z" fill="white"/>
<path fill-rule="evenodd" clip-rule="evenodd" d="M265.428 102.918C281.138 96.5347 292.295 83.0851 292.295 62.1129C292.295 31.3384 260.419 28.3749 237.195 28.3749H174.582L149.765 185.667H225.356C257.232 185.667 288.652 170.849 288.652 133.464C288.652 118.419 279.545 107.477 265.428 102.918ZM229.682 65.7602C235.374 65.7602 241.521 67.3559 241.521 74.4227C241.521 83.9969 234.691 88.1002 226.039 88.1002H214.882L218.298 65.7602H229.682ZM225.583 122.522C231.959 122.522 239.017 124.346 239.017 132.096C239.017 142.126 231.731 147.142 222.396 147.142H205.547L209.418 122.522H225.583Z" fill="white"/>
<path d="M450 53.6784L412.432 82.4012C405.146 73.2829 395.583 68.4957 383.972 68.4957C358.926 68.4957 346.176 94.2551 346.176 116.367C346.176 132.552 354.373 145.546 371.677 145.546C377.141 145.546 389.208 144.406 393.079 139.847L394.9 128.905H371.904L378.052 90.3798H449.545L438.616 160.591C414.709 180.196 395.356 188.174 363.935 188.174C324.091 188.174 295.402 164.922 295.402 123.434C295.402 67.128 333.653 26.0953 390.574 26.0953C415.847 26.0953 434.518 33.39 450 53.6784Z" fill="white"/>
<path fill-rule="evenodd" clip-rule="evenodd" d="M66.4629 198.562L64.0825 213.703C64.0265 214.095 63.9985 214.46 63.9985 214.74C63.9985 215.357 64.0825 215.722 64.0825 215.722H58.3974C58.3974 215.722 58.2854 215.385 58.2854 214.74C58.2854 214.544 58.3134 214.348 58.3414 214.208C57.1652 215.469 55.4289 216.058 53.7486 216.058C50.2759 216.058 48.4556 213.479 48.4556 210.198C48.4556 205.684 51.2001 201.141 56.101 201.141C57.3893 201.141 59.0416 201.506 59.8257 202.599C59.8257 202.478 59.8899 202.036 60.038 201.014C60.1296 200.383 60.2533 199.529 60.4138 198.394C60.4698 197.973 60.4978 197.58 60.4978 197.244C60.4978 196.711 60.4418 196.375 60.4418 196.375H66.4909C66.4909 196.375 66.5749 196.683 66.5749 197.3C66.5749 197.637 66.5469 198.057 66.4629 198.562ZM59.0696 207.955C59.0696 206.861 58.3974 206.076 57.2772 206.076C55.709 206.076 54.7288 207.562 54.7288 209.02C54.7288 210.114 55.4009 210.927 56.5211 210.927C58.0894 210.927 59.0696 209.441 59.0696 207.955Z" fill="white"/>
<path d="M17.6707 221.558C22.9354 217.83 28.9033 213.604 28.9033 206.634C28.9033 200.559 23.3023 198.643 18.1214 198.643C12.9871 198.643 8.36623 200.278 5.05229 203.129L7.75946 210.419C9.81317 208.55 12.8471 206.867 15.6942 206.867C17.1879 206.867 18.8682 207.335 18.8682 209.11C18.8682 211.857 15.9331 214.099 13.9179 215.639L13.9099 215.645C13.8017 215.727 13.6961 215.808 13.5939 215.887L2.06507 224.765L2.15842 231.355H26.6629L27.9232 223.317H15.2275C16.0058 222.737 16.8293 222.154 17.6707 221.558Z" fill="white"/>
<path d="M39.3461 215.722H45.3952C45.3952 215.722 45.3112 215.357 45.3112 214.74C45.3112 214.46 45.3392 214.095 45.3952 213.703L46.4314 207.31C46.5434 206.665 46.5994 206.02 46.5994 205.375C46.5994 202.487 45.1431 201.141 42.2586 201.141C40.5503 201.141 39.234 201.87 38.1418 203.16C38.1979 202.852 38.2259 202.515 38.2259 202.207C38.2259 201.898 38.1979 201.646 38.1138 201.422H32.0927C32.0927 201.422 32.1487 201.758 32.1487 202.291C32.1487 202.627 32.1207 203.02 32.0647 203.441L30.1044 215.722H36.2095L37.3297 208.712C37.4977 207.618 37.7218 206.301 39.094 206.301C39.9342 206.301 40.2142 206.777 40.2142 207.562C40.2142 207.927 40.1582 208.319 40.1022 208.712L39.3461 213.535C39.262 214.011 39.234 214.404 39.234 214.74C39.234 215.385 39.3461 215.722 39.3461 215.722Z" fill="white"/>
<path fill-rule="evenodd" clip-rule="evenodd" d="M106.707 231.355L101.013 199.11H89.7172L73.8476 231.355H84.4896L86.4033 226.822H95.1315L95.5983 231.355H106.707ZM94.2914 218.69H89.8105L93.3579 210.279L94.2914 218.69Z" fill="white"/>
<path d="M133.708 231.355H123.626C123.626 231.355 123.439 230.794 123.439 229.719C123.439 229.158 123.486 228.504 123.626 227.71L124.886 219.672C124.979 219.018 125.073 218.363 125.073 217.756C125.073 216.447 124.606 215.653 123.206 215.653C120.919 215.653 120.545 217.849 120.265 219.672L118.398 231.355H108.223L111.49 210.886C111.583 210.185 111.63 209.531 111.63 208.97C111.63 208.082 111.537 207.522 111.537 207.522H121.572C121.712 207.895 121.759 208.316 121.759 208.83C121.759 209.344 121.712 209.905 121.619 210.419C123.439 208.269 125.633 207.054 128.48 207.054C133.287 207.054 135.715 209.297 135.715 214.111C135.715 215.186 135.621 216.26 135.435 217.335L133.708 227.99C133.614 228.644 133.568 229.252 133.568 229.719C133.568 230.747 133.708 231.355 133.708 231.355Z" fill="white"/>
<path d="M152.251 231.355H162.333C162.333 231.355 162.193 230.747 162.193 229.719C162.193 229.252 162.239 228.644 162.333 227.99L164.06 217.335C164.246 216.26 164.34 215.186 164.34 214.111C164.34 209.297 161.913 207.054 157.105 207.054C154.258 207.054 152.064 208.269 150.244 210.419C150.337 209.905 150.384 209.344 150.384 208.83C150.384 208.316 150.337 207.895 150.197 207.522H140.162C140.162 207.522 140.255 208.082 140.255 208.97C140.255 209.531 140.209 210.185 140.115 210.886L136.848 231.355H147.023L148.89 219.672C149.17 217.849 149.544 215.653 151.831 215.653C153.231 215.653 153.698 216.447 153.698 217.756C153.698 218.363 153.604 219.018 153.511 219.672L152.251 227.71C152.111 228.504 152.064 229.158 152.064 229.719C152.064 230.794 152.251 231.355 152.251 231.355Z" fill="white"/>
<path d="M180.782 200.792C180.782 204.391 177.935 206.774 174.481 206.774C171.867 206.774 169.767 205.419 169.767 202.661C169.767 199.063 172.568 196.68 176.068 196.68C178.635 196.68 180.782 197.988 180.782 200.792Z" fill="white"/>
<path d="M176.208 231.355H166.08C166.08 231.355 165.893 230.794 165.893 229.719C165.893 229.158 165.94 228.504 166.08 227.71L168.74 210.886C168.834 210.232 168.88 209.671 168.88 209.157C168.88 208.176 168.74 207.522 168.74 207.522H178.869C178.869 207.522 179.009 208.129 179.009 209.204C179.009 209.718 179.009 210.372 178.869 211.167L176.208 227.99C176.115 228.644 176.068 229.252 176.068 229.719C176.068 230.747 176.208 231.355 176.208 231.355Z" fill="white"/>
<path d="M209.156 207.522H198.748L193.193 219.765L191.42 207.522H180.824L186.379 231.355H196.087L209.156 207.522Z" fill="white"/>
<path fill-rule="evenodd" clip-rule="evenodd" d="M222.508 222.756C220.314 222.756 218.914 222.476 216.393 221.775C216.674 224.205 218.634 225.093 220.968 225.093C223.301 225.093 225.448 224.392 227.129 223.41L230.069 228.411C225.355 231.869 221.201 232.009 218.12 232.009C211.773 232.009 206.965 228.738 206.965 222.149C206.965 213.316 213.313 207.101 221.808 207.101C226.802 207.101 231.656 209.204 231.656 215.045C231.656 220.419 228.249 222.756 222.508 222.756ZM217.047 216.961C217.887 217.102 218.961 217.242 220.034 217.242C222.321 217.242 223.862 216.681 223.862 214.625C223.862 213.363 222.835 212.709 221.434 212.709C219.661 212.709 217.42 214.765 217.047 216.961Z" fill="white"/>
<path d="M251.995 217.148L253.956 207.522C253.442 207.148 252.369 207.054 251.762 207.054C248.915 207.054 247.141 208.269 245.554 210.419H245.508C245.601 209.905 245.648 209.344 245.648 208.83C245.648 208.363 245.601 207.942 245.461 207.522H235.426C235.426 207.522 235.519 208.082 235.519 208.97C235.519 209.531 235.519 210.138 235.426 210.839L232.158 231.355H242.334L243.827 222.008C244.247 219.251 245.414 216.447 248.681 216.447C249.662 216.447 250.642 216.681 251.482 217.148H251.995Z" fill="white"/>
<path d="M273.985 209.718L270.297 215.653C268.71 214.531 266.096 213.503 264.089 213.503C263.669 213.503 262.736 213.597 262.736 214.204C262.736 214.796 263.783 215.118 265.18 215.547C267.974 216.406 272.164 217.693 272.164 222.429C272.164 229.112 266.283 231.962 260.309 231.962C256.715 231.962 252.981 231.121 250.274 228.644L254.661 222.382C256.388 223.737 259.515 224.906 261.756 224.906C262.176 224.906 263.063 224.812 263.063 224.205C263.063 223.471 261.862 223.124 260.318 222.678C257.535 221.873 253.634 220.746 253.634 216.447C253.634 210.185 258.955 207.007 264.743 207.007C268.29 207.007 270.997 207.708 273.985 209.718Z" fill="white"/>
<path fill-rule="evenodd" clip-rule="evenodd" d="M290.585 231.355H300.06C300.06 231.355 299.92 230.747 299.92 229.719C299.92 229.252 299.967 228.644 300.06 227.99L303.281 207.522H293.152C293.059 208.176 293.012 208.83 292.965 209.484C291.658 207.662 288.905 207.054 286.758 207.054C278.589 207.054 274.015 214.625 274.015 222.149C274.015 227.616 277.049 231.915 282.837 231.915C285.637 231.915 288.531 230.934 290.492 228.831C290.445 229.065 290.398 229.392 290.398 229.719C290.398 230.794 290.585 231.355 290.585 231.355ZM288.718 215.279C290.585 215.279 291.705 216.587 291.705 218.41C291.705 220.887 290.071 223.364 287.458 223.364C285.591 223.364 284.47 222.008 284.47 220.186C284.47 217.756 286.104 215.279 288.718 215.279Z" fill="white"/>
<path d="M325.042 208.293L323.239 217.148H322.726C321.885 216.681 320.905 216.447 319.925 216.447C316.658 216.447 315.491 219.251 315.071 222.008L313.577 231.355H303.402L306.669 210.839C306.763 210.138 306.763 209.531 306.763 208.97C306.763 208.082 306.669 207.522 306.669 207.522H316.704C316.844 207.942 316.891 208.363 316.891 208.83C316.891 209.344 316.844 209.905 316.751 210.419H316.798C318.385 208.269 320.158 207.054 323.006 207.054C323.612 207.054 324.686 207.148 325.199 207.522H335.457L337.23 219.765L342.785 207.522H353.193L339.937 231.822C337.65 235.981 335.177 240 329.856 240C327.475 240 323.928 239.626 321.734 238.598L324.955 231.028C325.795 231.448 327.102 231.775 328.035 231.775C329.109 231.775 329.856 231.495 330.229 230.42L325.042 208.293Z" fill="white"/>
<path d="M365.295 199.11H375.47L370.569 230.14C369.589 236.215 366.882 240 360.441 240C358.947 240 355.633 239.766 354.513 239.159L356.146 231.495C356.94 231.775 357.78 231.962 358.574 231.962C359.834 231.962 360.207 231.308 360.394 230.14L365.295 199.11Z" fill="white"/>
<path fill-rule="evenodd" clip-rule="evenodd" d="M391.137 231.355H400.612C400.612 231.355 400.472 230.747 400.472 229.719C400.472 229.252 400.519 228.644 400.612 227.99L403.833 207.522H393.704C393.611 208.176 393.564 208.83 393.518 209.484C392.211 207.662 389.457 207.054 387.31 207.054C379.142 207.054 374.568 214.625 374.568 222.149C374.568 227.616 377.601 231.915 383.389 231.915C386.19 231.915 389.084 230.934 391.044 228.831C390.997 229.065 390.951 229.392 390.951 229.719C390.951 230.794 391.137 231.355 391.137 231.355ZM389.27 215.279C391.137 215.279 392.258 216.587 392.258 218.41C392.258 220.887 390.624 223.364 388.01 223.364C386.143 223.364 385.023 222.008 385.023 220.186C385.023 217.756 386.656 215.279 389.27 215.279Z" fill="white"/>
<path d="M442.882 231.355H432.846C432.846 231.355 432.66 230.794 432.66 229.719C432.66 229.158 432.706 228.504 432.846 227.71L433.686 222.99C434.06 220.934 434.293 218.971 434.293 217.616C434.293 216.494 433.967 215.653 432.706 215.653C430.839 215.653 430.419 217.709 430.186 219.204L428.272 231.355H418.097C418.252 230.371 418.479 229.13 418.725 227.779L418.729 227.761L418.729 227.76C419.372 224.237 420.151 219.977 420.151 217.616C420.151 216.494 419.871 215.653 418.61 215.653C416.743 215.653 416.323 217.709 416.09 219.204L414.13 231.355H403.954L407.175 210.886C407.268 210.232 407.315 209.671 407.315 209.157C407.315 208.176 407.175 207.522 407.175 207.522H417.257C417.397 208.036 417.49 208.596 417.49 209.157C417.49 209.531 417.444 209.998 417.35 210.419C419.03 208.456 421.364 207.054 423.978 207.054C426.919 207.054 429.486 207.802 430.233 210.933C432.333 208.176 434.62 207.054 438.121 207.054C442.741 207.054 444.889 209.624 444.889 214.157C444.889 215.139 444.749 216.12 444.609 217.102L442.882 227.99C442.788 228.644 442.741 229.252 442.741 229.719C442.741 230.747 442.882 231.355 442.882 231.355Z" fill="white"/>
</svg>
