<svg width="396" height="217" viewBox="0 0 396 217" fill="none" xmlns="http://www.w3.org/2000/svg">
<path d="M25.789 187.311C25.789 194.404 18.737 198.258 13.776 201.948H24.928L23.821 209H2.296L2.214 203.219L12.341 195.429C14.104 194.076 16.974 192.026 16.974 189.484C16.974 187.926 15.498 187.516 14.186 187.516C11.685 187.516 9.02 188.992 7.216 190.632L4.838 184.236C7.749 181.735 11.808 180.3 16.318 180.3C20.869 180.3 25.789 181.981 25.789 187.311ZM40.2756 196H34.962C34.962 196 34.8636 195.705 34.8636 195.139C34.8636 194.844 34.8882 194.499 34.962 194.081L35.6262 189.85C35.6754 189.506 35.7246 189.161 35.7246 188.841C35.7246 188.153 35.4786 187.734 34.7406 187.734C33.5352 187.734 33.3384 188.891 33.1908 189.85L32.2068 196H26.844L28.566 185.225C28.6152 184.856 28.6398 184.512 28.6398 184.217C28.6398 183.749 28.5906 183.454 28.5906 183.454H33.8796C33.9534 183.651 33.978 183.872 33.978 184.143C33.978 184.413 33.9534 184.709 33.9042 184.979C34.8636 183.848 36.0198 183.208 37.5204 183.208C40.0542 183.208 41.3334 184.389 41.3334 186.923C41.3334 187.488 41.2842 188.054 41.1858 188.62L40.2756 194.229C40.2264 194.573 40.2018 194.893 40.2018 195.139C40.2018 195.68 40.2756 196 40.2756 196ZM58.7817 180.945L56.6907 194.229C56.6415 194.573 56.6169 194.893 56.6169 195.139C56.6169 195.68 56.6907 196 56.6907 196H51.6969C51.6969 196 51.5985 195.705 51.5985 195.139C51.5985 194.967 51.6231 194.795 51.6477 194.672C50.6145 195.779 49.0893 196.295 47.6133 196.295C44.5629 196.295 42.9639 194.032 42.9639 191.154C42.9639 187.193 45.3747 183.208 49.6797 183.208C50.8113 183.208 52.2627 183.528 52.9515 184.487C52.9515 184.315 53.0991 183.405 53.4681 180.797C53.5173 180.428 53.5419 180.084 53.5419 179.789C53.5419 179.321 53.4927 179.026 53.4927 179.026H58.8063C58.8063 179.026 58.8801 179.297 58.8801 179.838C58.8801 180.133 58.8555 180.502 58.7817 180.945ZM52.2873 189.186C52.2873 188.226 51.6969 187.538 50.7129 187.538C49.3353 187.538 48.4743 188.841 48.4743 190.121C48.4743 191.08 49.0647 191.793 50.0487 191.793C51.4263 191.793 52.2873 190.49 52.2873 189.186ZM89.1305 180.71L94.1325 209H84.3745L83.9645 205.023H76.2975L74.6165 209H65.2685L79.2085 180.71H89.1305ZM79.2905 197.889H83.2265L82.4065 190.509L79.2905 197.889ZM117.85 209H108.994C108.994 209 108.83 208.508 108.83 207.565C108.83 207.073 108.871 206.499 108.994 205.802L110.101 198.75C110.183 198.176 110.265 197.602 110.265 197.069C110.265 195.921 109.855 195.224 108.625 195.224C106.616 195.224 106.288 197.151 106.042 198.75L104.402 209H95.464L98.334 191.042C98.416 190.427 98.457 189.853 98.457 189.361C98.457 188.582 98.375 188.09 98.375 188.09H107.19C107.313 188.418 107.354 188.787 107.354 189.238C107.354 189.689 107.313 190.181 107.231 190.632C108.83 188.746 110.757 187.68 113.258 187.68C117.481 187.68 119.613 189.648 119.613 193.871C119.613 194.814 119.531 195.757 119.367 196.7L117.85 206.048C117.768 206.622 117.727 207.155 117.727 207.565C117.727 208.467 117.85 209 117.85 209ZM142.995 209H134.139C134.139 209 133.975 208.508 133.975 207.565C133.975 207.073 134.016 206.499 134.139 205.802L135.246 198.75C135.328 198.176 135.41 197.602 135.41 197.069C135.41 195.921 135 195.224 133.77 195.224C131.761 195.224 131.433 197.151 131.187 198.75L129.547 209H120.609L123.479 191.042C123.561 190.427 123.602 189.853 123.602 189.361C123.602 188.582 123.52 188.09 123.52 188.09H132.335C132.458 188.418 132.499 188.787 132.499 189.238C132.499 189.689 132.458 190.181 132.376 190.632C133.975 188.746 135.902 187.68 138.403 187.68C142.626 187.68 144.758 189.648 144.758 193.871C144.758 194.814 144.676 195.757 144.512 196.7L142.995 206.048C142.913 206.622 142.872 207.155 142.872 207.565C142.872 208.467 142.995 209 142.995 209ZM159.201 182.186C159.201 185.343 156.7 187.434 153.666 187.434C151.37 187.434 149.525 186.245 149.525 183.826C149.525 180.669 151.985 178.578 155.06 178.578C157.315 178.578 159.201 179.726 159.201 182.186ZM155.183 209H146.286C146.286 209 146.122 208.508 146.122 207.565C146.122 207.073 146.163 206.499 146.286 205.802L148.623 191.042C148.705 190.468 148.746 189.976 148.746 189.525C148.746 188.664 148.623 188.09 148.623 188.09H157.52C157.52 188.09 157.643 188.623 157.643 189.566C157.643 190.017 157.643 190.591 157.52 191.288L155.183 206.048C155.101 206.622 155.06 207.155 155.06 207.565C155.06 208.467 155.183 209 155.183 209ZM174.982 188.09H184.125L172.645 209H164.117L159.238 188.09H168.545L170.103 198.832L174.982 188.09ZM195.853 201.456C193.926 201.456 192.696 201.21 190.482 200.595C190.728 202.727 192.45 203.506 194.5 203.506C196.55 203.506 198.436 202.891 199.912 202.03L202.495 206.417C198.354 209.451 194.705 209.574 191.999 209.574C186.423 209.574 182.2 206.704 182.2 200.923C182.2 193.174 187.776 187.721 195.238 187.721C199.625 187.721 203.889 189.566 203.889 194.691C203.889 199.406 200.896 201.456 195.853 201.456ZM191.056 196.372C191.794 196.495 192.737 196.618 193.68 196.618C195.689 196.618 197.042 196.126 197.042 194.322C197.042 193.215 196.14 192.641 194.91 192.641C193.352 192.641 191.384 194.445 191.056 196.372ZM223.477 188.09L221.755 196.536H221.304C220.566 196.126 219.705 195.921 218.844 195.921C215.974 195.921 214.949 198.381 214.58 200.8L213.268 209H204.33L207.2 191.001C207.282 190.386 207.282 189.853 207.282 189.361C207.282 188.582 207.2 188.09 207.2 188.09H216.015C216.138 188.459 216.179 188.828 216.179 189.238C216.179 189.689 216.138 190.181 216.056 190.632H216.097C217.491 188.746 219.049 187.68 221.55 187.68C222.083 187.68 223.026 187.762 223.477 188.09ZM241.071 190.017L237.832 195.224C236.438 194.24 234.142 193.338 232.379 193.338C232.01 193.338 231.19 193.42 231.19 193.953C231.19 195.511 239.472 194.937 239.472 201.169C239.472 207.032 234.306 209.533 229.058 209.533C225.901 209.533 222.621 208.795 220.243 206.622L224.097 201.128C225.614 202.317 228.361 203.342 230.329 203.342C230.698 203.342 231.477 203.26 231.477 202.727C231.477 200.923 223.195 201.784 223.195 195.921C223.195 190.427 227.869 187.639 232.953 187.639C236.069 187.639 238.447 188.254 241.071 190.017ZM263.976 209H255.653C255.653 209 255.489 208.508 255.489 207.565C255.489 207.278 255.53 206.991 255.571 206.786C253.849 208.631 251.307 209.492 248.847 209.492C243.763 209.492 241.098 205.72 241.098 200.923C241.098 194.322 245.116 187.68 252.291 187.68C254.177 187.68 256.596 188.213 257.744 189.812C257.785 189.238 257.826 188.664 257.908 188.09H266.805L263.976 206.048C263.894 206.622 263.853 207.155 263.853 207.565C263.853 208.467 263.976 209 263.976 209ZM256.637 197.643C256.637 196.044 255.653 194.896 254.013 194.896C251.717 194.896 250.282 197.069 250.282 199.201C250.282 200.8 251.266 201.989 252.906 201.989C255.202 201.989 256.637 199.816 256.637 197.643ZM286.058 188.09L284.336 196.536H283.885C283.147 196.126 282.286 195.921 281.425 195.921C278.555 195.921 277.53 198.381 277.161 200.8L275.849 209H266.911L269.781 191.001C269.863 190.386 269.863 189.853 269.863 189.361C269.863 188.582 269.781 188.09 269.781 188.09H278.596C278.719 188.459 278.76 188.828 278.76 189.238C278.76 189.689 278.719 190.181 278.637 190.632H278.678C280.072 188.746 281.63 187.68 284.131 187.68C284.664 187.68 285.607 187.762 286.058 188.09ZM301.505 188.09H310.648L299.004 209.41C296.995 213.059 294.822 216.585 290.148 216.585C288.057 216.585 284.941 216.257 283.014 215.355L285.843 208.713C286.581 209.082 287.729 209.369 288.549 209.369C289.492 209.369 290.148 209.123 290.476 208.18L285.761 188.09H295.068L296.626 198.832L301.505 188.09ZM321.279 180.71H330.217L325.912 207.934C325.051 213.264 322.673 216.585 317.015 216.585C315.703 216.585 312.792 216.38 311.808 215.847L313.243 209.123C313.94 209.369 314.678 209.533 315.375 209.533C316.482 209.533 316.81 208.959 316.974 207.934L321.279 180.71ZM352.302 209H343.979C343.979 209 343.815 208.508 343.815 207.565C343.815 207.278 343.856 206.991 343.897 206.786C342.175 208.631 339.633 209.492 337.173 209.492C332.089 209.492 329.424 205.72 329.424 200.923C329.424 194.322 333.442 187.68 340.617 187.68C342.503 187.68 344.922 188.213 346.07 189.812C346.111 189.238 346.152 188.664 346.234 188.09H355.131L352.302 206.048C352.22 206.622 352.179 207.155 352.179 207.565C352.179 208.467 352.302 209 352.302 209ZM344.963 197.643C344.963 196.044 343.979 194.896 342.339 194.896C340.043 194.896 338.608 197.069 338.608 199.201C338.608 200.8 339.592 201.989 341.232 201.989C343.528 201.989 344.963 199.816 344.963 197.643ZM389.431 209H380.616C380.616 209 380.452 208.508 380.452 207.565C380.452 207.073 380.493 206.499 380.616 205.802L381.354 201.661C381.682 199.857 381.887 198.135 381.887 196.946C381.887 195.962 381.6 195.224 380.493 195.224C378.853 195.224 378.484 197.028 378.279 198.34L376.598 209H367.66C368.152 205.884 369.464 199.816 369.464 196.946C369.464 195.962 369.218 195.224 368.111 195.224C366.471 195.224 366.102 197.028 365.897 198.34L364.175 209H355.237L358.066 191.042C358.148 190.468 358.189 189.976 358.189 189.525C358.189 188.664 358.066 188.09 358.066 188.09H366.922C367.045 188.541 367.127 189.033 367.127 189.525C367.127 189.853 367.086 190.263 367.004 190.632C368.48 188.91 370.53 187.68 372.826 187.68C375.409 187.68 377.664 188.336 378.32 191.083C380.165 188.664 382.174 187.68 385.249 187.68C389.308 187.68 391.194 189.935 391.194 193.912C391.194 194.773 391.071 195.634 390.948 196.495L389.431 206.048C389.349 206.622 389.308 207.155 389.308 207.565C389.308 208.467 389.431 209 389.431 209Z" fill="#FD074E"/>
<path d="M136.2 53.2L103.2 78.4C96.8 70.4 88.4 66.2 78.2 66.2C56.2 66.2 45 88.8 45 108.2C45 122.4 52.2 133.8 67.4 133.8C72.2 133.8 82.8 132.8 86.2 128.8L87.8 119.2H67.6L73 85.4H135.8L126.2 147C105.2 164.2 88.2 171.2 60.6 171.2C25.6 171.2 0.400024 150.8 0.400024 114.4C0.400024 65 34 29 84 29C106.2 29 122.6 35.4 136.2 53.2Z" fill="#12142D"/>
<path d="M257.155 60.6C257.155 79 247.355 90.8 233.555 96.4C245.955 100.4 253.955 110 253.955 123.2C253.955 156 226.355 169 198.355 169H131.955L153.755 31H208.755C229.155 31 257.155 33.6 257.155 60.6ZM212.555 71.4C212.555 65.2 207.155 63.8 202.155 63.8H192.155L189.155 83.4H198.955C206.555 83.4 212.555 79.8 212.555 71.4ZM210.355 122C210.355 115.2 204.155 113.6 198.555 113.6H184.355L180.955 135.2H195.755C203.955 135.2 210.355 130.8 210.355 122Z" fill="#12142D"/>
<path d="M395.684 53.2L362.684 78.4C356.284 70.4 347.884 66.2 337.684 66.2C315.684 66.2 304.484 88.8 304.484 108.2C304.484 122.4 311.684 133.8 326.884 133.8C331.684 133.8 342.284 132.8 345.684 128.8L347.284 119.2H327.084L332.484 85.4H395.284L385.684 147C364.684 164.2 347.684 171.2 320.084 171.2C285.084 171.2 259.884 150.8 259.884 114.4C259.884 65 293.484 29 343.484 29C365.684 29 382.084 35.4 395.684 53.2Z" fill="#12142D"/>
<circle cx="56.5" cy="22.5" r="22.5" fill="#12142D"/>
<circle cx="95.5" cy="22.5" r="22.5" fill="#12142D"/>
<path fill-rule="evenodd" clip-rule="evenodd" d="M111.729 22.4794C111.729 31.5225 104.398 38.8535 95.355 38.8535C87.3489 38.8535 80.6848 33.1075 79.2617 25.5145C81.3803 29.1184 85.2981 31.5374 89.7808 31.5374C96.5151 31.5374 101.974 26.0782 101.974 19.3439C101.974 12.6096 96.5151 7.15043 89.7808 7.15043C89.7144 7.15043 89.648 7.15096 89.5818 7.15202C91.3773 6.47541 93.3229 6.10522 95.355 6.10522C104.398 6.10522 111.729 13.4362 111.729 22.4794ZM73.126 22.4794C73.126 31.5226 65.795 38.8535 56.7518 38.8535C48.7457 38.8535 42.0816 33.1076 40.6585 25.5145C42.7771 29.1184 46.6949 31.5375 51.1776 31.5375C57.9119 31.5375 63.3711 26.0783 63.3711 19.344C63.3711 12.6097 57.9119 7.15047 51.1776 7.15047C51.1112 7.15047 51.0448 7.151 50.9786 7.15206C52.7741 6.47545 54.7197 6.10527 56.7518 6.10527C65.795 6.10527 73.126 13.4362 73.126 22.4794Z" fill="white"/>
</svg>
