<svg width="522" height="187" viewBox="0 0 522 187" fill="none" xmlns="http://www.w3.org/2000/svg">
<path d="M125.696 94.192V133.104C123.392 132.08 119.68 130.8 116.736 130.16C114.816 140.528 103.808 146.544 80.64 146.544C57.728 146.544 44.416 134.128 44.416 117.232C44.416 97.264 56.832 87.024 73.216 87.024V76.144H46.592V40.048H73.216V25.584H117.376V40.048H125.696V76.144H117.376V92.528C119.936 92.912 123.264 93.68 125.696 94.192ZM43.904 142.448L6.27201 143.472C4.73601 130.544 4.09601 112.368 4.09601 93.552C4.09601 67.312 5.37601 40.176 7.29601 25.328L44.8 27.12C42.368 40.816 41.088 64.496 41.088 88.176C41.088 108.4 41.856 128.624 43.904 142.448ZM84.48 116.72V114.032C82.176 113.136 80.512 113.008 79.232 113.008C75.008 113.008 72.704 114.288 72.704 117.232C72.704 119.664 74.88 121.2 78.208 121.2C80.384 121.2 84.48 120.176 84.48 116.72Z" fill="#12142D"/>
<path d="M223.872 49.52L212.736 52.848C211.072 47.6 208.64 41.712 205.568 35.696L216.192 33.008C219.264 38.64 221.952 44.912 223.872 49.52ZM208.768 54.896L197.248 58.224C195.712 52.976 193.408 47.216 190.336 41.2L201.216 38.384C204.288 44.016 207.104 50.16 208.768 54.896ZM246.016 76.144L255.616 127.472C240.64 140.912 223.104 146.544 196.352 146.544C164.736 146.544 140.928 132.208 140.928 105.84V25.584H193.92V35.952L184.576 38.384C189.184 47.856 191.744 54 193.92 60.912V81.52C193.92 89.584 200.192 95.216 211.328 95.216C224 95.216 233.6 87.536 246.016 76.144Z" fill="#12142D"/>
<path d="M384.512 29.424V65.392C384.512 129.776 363.008 147.44 271.744 147.568L267.776 97.904C327.936 97.776 336 90.096 336 72.688H267.648V29.424H384.512Z" fill="#12142D"/>
<path d="M518.016 143.856L470.272 143.728V138.224H448.768V143.728H401.024V28.4H518.016V143.856ZM470.272 95.344V69.744H448.768V95.344H470.272Z" fill="#12142D"/>
<circle cx="349" cy="24" r="24" fill="#12142D"/>
<circle cx="390.6" cy="24" r="24" fill="#12142D"/>
<path fill-rule="evenodd" clip-rule="evenodd" d="M407.911 23.978C407.911 33.624 400.091 41.4437 390.445 41.4437C381.905 41.4437 374.797 35.3147 373.279 27.2155C375.539 31.0596 379.718 33.6399 384.5 33.6399C391.683 33.6399 397.506 27.8167 397.506 20.6335C397.506 13.4503 391.683 7.62711 384.5 7.62711C384.429 7.62711 384.358 7.62767 384.287 7.6288C386.202 6.90709 388.278 6.51224 390.445 6.51224C400.091 6.51224 407.911 14.3319 407.911 23.978ZM366.734 23.978C366.734 33.6241 358.915 41.4438 349.269 41.4438C340.729 41.4438 333.62 35.3147 332.102 27.2155C334.362 31.0597 338.541 33.64 343.323 33.64C350.506 33.64 356.329 27.8168 356.329 20.6336C356.329 13.4503 350.506 7.62718 343.323 7.62718C343.252 7.62718 343.181 7.62775 343.11 7.62888C345.026 6.90715 347.101 6.51229 349.269 6.51229C358.915 6.51229 366.734 14.332 366.734 23.978Z" fill="white"/>
<path d="M31.892 160.608C30.804 165.878 28.662 171.998 26.758 176.384L19.89 174.752C20.978 172.814 22.066 170.06 22.678 168.156L14.212 168.802V176.826C14.212 178.662 14.926 178.934 17.204 178.934C18.836 178.934 24.344 178.832 29.512 178.594L29.852 185.326C26.078 185.53 20.502 185.632 17 185.632C10.676 185.632 7.31 184.782 7.31 178.628V169.312L2.108 169.72L1.666 162.784L7.31 162.376V156.902H14.212V161.9L31.892 160.608ZM65.212 162.614C65.212 170.23 64.396 178.696 63.478 186.074L55.998 185.156C56.984 179.58 57.698 173.732 57.868 169.142H52.02C50.252 174.99 47.906 180.6 44.71 186.108L37.536 183.524C40.698 178.798 42.976 174.072 44.642 169.142H38.114V162.614H46.444C46.886 160.574 47.26 158.466 47.532 156.256L54.842 157.004C54.502 158.908 54.162 160.744 53.72 162.614H65.212ZM87.346 162.41L83.368 168.122C79.9 165.776 76.874 164.11 73.44 162.75L77.18 156.936C80.818 158.398 83.946 160.03 87.346 162.41ZM101.796 170.672C95.88 177.472 87.788 182.776 77.962 186.074L74.256 179.716C83.47 176.792 90.916 172.372 97.546 164.586L101.796 170.672ZM135.898 161.424L131.818 162.342C131.206 160.438 130.39 158.636 129.608 157.106L133.518 156.222C134.504 157.752 135.286 159.588 135.898 161.424ZM130.968 162.546L126.922 163.43C126.344 161.662 125.63 159.792 124.882 158.194L128.758 157.276C129.608 158.942 130.322 160.744 130.968 162.546ZM136.204 171.216L133.246 177.608C128.622 175.772 123.182 173.732 119.272 172.474V186.414H112.2V156.698H119.272V165.13C125.494 167.034 130.628 168.802 136.204 171.216ZM171.7 158.16C170.442 165.878 167.178 171.42 163.642 176.316L157.964 173.664C156.332 178.866 153.952 183.252 151.402 186.618L144.5 183.558C148.546 178.662 151.096 174.344 152.184 167.068L159.426 167.782C159.188 169.108 158.882 170.4 158.542 171.658C160.208 169.414 161.5 167.136 162.52 164.688H143.48V158.16H171.7ZM201.031 165.98H178.013V159.214H201.031V165.98ZM203.955 183.83H175.531V176.962H203.955V183.83ZM241.185 159.86L237.309 160.744C236.731 158.908 235.949 157.208 235.235 155.712L238.941 154.896C239.859 156.358 240.607 158.126 241.185 159.86ZM240.471 182.47L233.263 184.986C230.407 179.104 227.313 169.448 226.123 158.942L231.291 158.092C231.087 157.616 230.917 157.208 230.713 156.8L234.385 155.916C235.235 157.48 235.881 159.214 236.493 160.914L233.841 161.526C234.827 168.224 236.493 174.684 240.471 182.47ZM223.233 158.942C221.907 169.448 218.881 179.104 216.127 184.986L208.953 182.436C213.543 173.222 215.005 165.878 216.025 157.718L223.233 158.942ZM273.757 174.174H245.741V167.034H273.757V174.174ZM310.103 169.38H305.105C303.507 176.01 301.263 181.722 298.781 186.754L291.845 184.68C294.871 179.308 296.673 174.412 297.863 169.38H291.029C291.097 171.964 291.199 174.548 291.437 177.268L284.501 177.88C284.297 174.922 284.161 172.1 284.059 169.38H279.639V162.92H284.025C284.059 160.846 284.093 158.908 284.161 157.004L291.335 157.242C291.199 159.18 291.131 161.05 291.063 162.92H299.053C299.359 160.846 299.597 158.738 299.835 156.494L307.145 157.106C306.975 159.078 306.703 161.05 306.397 162.92H310.103V169.38ZM343.797 174.174H315.781V167.034H343.797V174.174ZM360.423 175.296L353.249 175.84C352.841 171.896 352.705 168.122 352.705 164.654C352.705 162.24 352.773 159.962 352.875 157.854L360.219 158.228C360.049 160.846 359.947 163.396 359.947 165.946C359.947 169.074 360.117 172.168 360.423 175.296ZM378.409 157.888C377.321 169.346 374.057 179.07 368.957 186.652L362.055 183.932C367.631 176.01 370.045 168.428 370.929 157.276L378.409 157.888ZM413.837 174.174H385.821V167.034H413.837V174.174ZM450.387 161.696L446.307 162.648C445.661 160.676 444.879 158.908 444.097 157.344L448.007 156.494C448.993 158.024 449.775 159.894 450.387 161.696ZM445.457 162.818L441.411 163.702C440.833 161.968 440.119 160.064 439.371 158.5L443.213 157.582C444.097 159.214 444.811 161.05 445.457 162.818ZM437.841 161.152L434.339 166.796C431.109 164.926 427.675 163.362 424.003 162.07L427.335 156.324C431.075 157.514 434.509 159.146 437.841 161.152ZM433.285 169.346L429.715 174.888C426.485 172.984 423.085 171.42 419.345 170.162L422.745 164.552C426.247 165.674 429.885 167.34 433.285 169.346ZM450.319 171.012C443.961 177.982 436.209 183.32 426.961 186.89L423.051 180.668C432.265 177.438 439.575 172.338 446.205 165.028L450.319 171.012ZM483.401 162.92C482.007 169.244 479.967 174.106 477.723 178.662L471.467 176.452C472.861 174.106 473.949 171.964 474.731 169.992L469.427 170.536L472.453 185.36L465.823 186.278L462.763 171.216L457.187 171.794L456.541 165.572L461.505 165.062L460.655 160.71L467.251 159.758L468.169 164.416L483.401 162.92ZM520.869 184.272L513.525 186.006C513.117 184.918 512.743 183.898 512.369 182.844L490.371 185.496C493.125 176.282 496.321 166.252 498.497 156.902L505.705 157.888C503.869 165.028 501.319 173.596 500.061 177.71L509.683 176.622C508.391 173.902 507.031 171.386 505.535 169.006L512.369 167.068C515.599 172.032 518.251 177.608 520.869 184.272Z" fill="#FD074E"/>
</svg>
