<svg width="523" height="189" viewBox="0 0 523 189" fill="none" xmlns="http://www.w3.org/2000/svg">
<path d="M125.696 94.192V133.104C123.392 132.08 119.68 130.8 116.736 130.16C114.816 140.528 103.808 146.544 80.64 146.544C57.728 146.544 44.416 134.128 44.416 117.232C44.416 97.264 56.832 87.024 73.216 87.024V76.144H46.592V40.048H73.216V25.584H117.376V40.048H125.696V76.144H117.376V92.528C119.936 92.912 123.264 93.68 125.696 94.192ZM43.904 142.448L6.27201 143.472C4.73601 130.544 4.09601 112.368 4.09601 93.552C4.09601 67.312 5.37601 40.176 7.29601 25.328L44.8 27.12C42.368 40.816 41.088 64.496 41.088 88.176C41.088 108.4 41.856 128.624 43.904 142.448ZM84.48 116.72V114.032C82.176 113.136 80.512 113.008 79.232 113.008C75.008 113.008 72.704 114.288 72.704 117.232C72.704 119.664 74.88 121.2 78.208 121.2C80.384 121.2 84.48 120.176 84.48 116.72Z" fill="#12142D"/>
<path d="M223.872 49.52L212.736 52.848C211.072 47.6 208.64 41.712 205.568 35.696L216.192 33.008C219.264 38.64 221.952 44.912 223.872 49.52ZM208.768 54.896L197.248 58.224C195.712 52.976 193.408 47.216 190.336 41.2L201.216 38.384C204.288 44.016 207.104 50.16 208.768 54.896ZM246.016 76.144L255.616 127.472C240.64 140.912 223.104 146.544 196.352 146.544C164.736 146.544 140.928 132.208 140.928 105.84V25.584H193.92V35.952L184.576 38.384C189.184 47.856 191.744 54 193.92 60.912V81.52C193.92 89.584 200.192 95.216 211.328 95.216C224 95.216 233.6 87.536 246.016 76.144Z" fill="#12142D"/>
<path d="M384.512 29.424V65.392C384.512 129.776 363.008 147.44 271.744 147.568L267.776 97.904C327.936 97.776 336 90.096 336 72.688H267.648V29.424H384.512Z" fill="#12142D"/>
<path d="M518.016 143.856L470.272 143.728V138.224H448.768V143.728H401.024V28.4H518.016V143.856ZM470.272 95.344V69.744H448.768V95.344H470.272Z" fill="#12142D"/>
<circle cx="349" cy="24" r="24" fill="#12142D"/>
<circle cx="390.6" cy="24" r="24" fill="#12142D"/>
<path fill-rule="evenodd" clip-rule="evenodd" d="M407.911 23.978C407.911 33.624 400.091 41.4437 390.445 41.4437C381.905 41.4437 374.797 35.3147 373.279 27.2155C375.539 31.0596 379.718 33.6399 384.5 33.6399C391.683 33.6399 397.506 27.8167 397.506 20.6335C397.506 13.4503 391.683 7.62711 384.5 7.62711C384.429 7.62711 384.358 7.62767 384.287 7.6288C386.202 6.90709 388.278 6.51224 390.445 6.51224C400.091 6.51224 407.911 14.3319 407.911 23.978ZM366.734 23.978C366.734 33.6241 358.915 41.4438 349.269 41.4438C340.729 41.4438 333.62 35.3147 332.102 27.2155C334.362 31.0597 338.541 33.64 343.323 33.64C350.506 33.64 356.329 27.8168 356.329 20.6336C356.329 13.4503 350.506 7.62718 343.323 7.62718C343.252 7.62718 343.181 7.62775 343.11 7.62888C345.026 6.90715 347.101 6.51229 349.269 6.51229C358.915 6.51229 366.734 14.332 366.734 23.978Z" fill="white"/>
<path d="M34.237 159.888C33.069 165.545 30.7695 172.115 28.7255 176.824L21.3525 175.072C22.5205 172.991 23.6885 170.035 24.3455 167.991L15.257 168.684V177.298C15.257 179.269 16.0235 179.561 18.469 179.561C20.221 179.561 26.134 179.452 31.682 179.196L32.047 186.424C27.9955 186.643 22.0095 186.752 18.25 186.752C11.461 186.752 7.8475 185.84 7.8475 179.233V169.232L2.263 169.67L1.7885 162.224L7.8475 161.786V155.909H15.257V161.275L34.237 159.888ZM70.007 162.041C70.007 170.217 69.131 179.306 68.1455 187.227L60.1155 186.241C61.174 180.255 61.9405 173.977 62.123 169.049H55.845C53.947 175.327 51.4285 181.35 47.9975 187.263L40.296 184.489C43.6905 179.415 46.136 174.342 47.9245 169.049H40.9165V162.041H49.859C50.3335 159.851 50.735 157.588 51.027 155.216L58.8745 156.019C58.5095 158.063 58.1445 160.034 57.67 162.041H70.007ZM93.7685 161.822L89.498 167.954C85.775 165.436 82.5265 163.647 78.84 162.188L82.855 155.946C86.7605 157.515 90.1185 159.267 93.7685 161.822ZM109.281 170.692C102.93 177.992 94.243 183.686 83.6945 187.227L79.716 180.401C89.6075 177.262 97.601 172.517 104.719 164.158L109.281 170.692ZM145.891 160.764L141.511 161.749C140.854 159.705 139.978 157.771 139.138 156.128L143.336 155.179C144.394 156.822 145.234 158.793 145.891 160.764ZM140.598 161.968L136.255 162.917C135.634 161.019 134.868 159.012 134.065 157.296L138.226 156.311C139.138 158.099 139.905 160.034 140.598 161.968ZM146.219 171.276L143.044 178.138C138.08 176.167 132.24 173.977 128.042 172.626V187.592H120.45V155.69H128.042V164.742C134.722 166.786 140.233 168.684 146.219 171.276ZM184.325 157.26C182.975 165.545 179.471 171.495 175.675 176.751L169.579 173.904C167.827 179.488 165.272 184.197 162.535 187.811L155.125 184.525C159.469 179.269 162.206 174.634 163.374 166.823L171.149 167.589C170.893 169.013 170.565 170.4 170.2 171.75C171.988 169.341 173.375 166.896 174.47 164.268H154.03V157.26H184.325ZM215.813 165.655H191.103V158.391H215.813V165.655ZM218.952 184.817H188.438V177.444H218.952V184.817ZM258.92 159.085L254.759 160.034C254.138 158.063 253.299 156.238 252.532 154.632L256.511 153.756C257.496 155.325 258.299 157.223 258.92 159.085ZM258.153 183.357L250.415 186.059C247.349 179.744 244.028 169.378 242.75 158.099L248.298 157.187C248.079 156.676 247.897 156.238 247.678 155.8L251.62 154.851C252.532 156.53 253.226 158.391 253.883 160.216L251.036 160.873C252.094 168.064 253.883 174.999 258.153 183.357ZM239.648 158.099C238.224 169.378 234.976 179.744 232.019 186.059L224.318 183.321C229.245 173.429 230.815 165.545 231.91 156.785L239.648 158.099ZM293.887 174.451H263.811V166.786H293.887V174.451ZM332.905 169.305H327.54C325.824 176.422 323.415 182.554 320.751 187.957L313.305 185.73C316.553 179.963 318.488 174.707 319.765 169.305H312.429C312.502 172.079 312.611 174.853 312.867 177.773L305.421 178.43C305.202 175.254 305.056 172.225 304.946 169.305H300.201V162.37H304.91C304.946 160.143 304.983 158.063 305.056 156.019L312.757 156.274C312.611 158.355 312.538 160.362 312.465 162.37H321.043C321.371 160.143 321.627 157.88 321.882 155.471L329.73 156.128C329.547 158.245 329.255 160.362 328.927 162.37H332.905V169.305ZM349.33 175.656L341.629 176.24C341.191 172.006 341.045 167.954 341.045 164.231C341.045 161.64 341.118 159.194 341.227 156.931L349.111 157.333C348.929 160.143 348.819 162.881 348.819 165.618C348.819 168.976 349.002 172.298 349.33 175.656ZM368.639 156.968C367.471 169.268 363.967 179.707 358.492 187.847L351.082 184.927C357.068 176.422 359.66 168.283 360.609 156.311L368.639 156.968ZM406.672 174.451H376.596V166.786H406.672V174.451ZM445.909 161.056L441.529 162.078C440.836 159.961 439.996 158.063 439.157 156.384L443.354 155.471C444.413 157.114 445.252 159.121 445.909 161.056ZM440.617 162.26L436.273 163.209C435.653 161.348 434.886 159.304 434.083 157.625L438.208 156.639C439.157 158.391 439.923 160.362 440.617 162.26ZM432.441 160.472L428.681 166.531C425.214 164.523 421.527 162.844 417.585 161.457L421.162 155.289C425.177 156.566 428.864 158.318 432.441 160.472ZM427.55 169.268L423.717 175.218C420.25 173.174 416.6 171.495 412.585 170.144L416.235 164.122C419.994 165.326 423.9 167.115 427.55 169.268ZM445.836 171.057C439.011 178.539 430.689 184.27 420.761 188.103L416.563 181.423C426.455 177.955 434.302 172.48 441.42 164.633L445.836 171.057ZM481.351 162.37C479.854 169.159 477.664 174.378 475.255 179.269L468.539 176.897C470.036 174.378 471.204 172.079 472.043 169.962L466.349 170.546L469.598 186.46L462.48 187.446L459.195 171.276L453.209 171.896L452.516 165.217L457.845 164.669L456.932 159.997L464.013 158.975L464.999 163.976L481.351 162.37ZM521.574 185.292L513.69 187.154C513.252 185.986 512.85 184.89 512.449 183.759L488.833 186.606C491.79 176.714 495.221 165.947 497.557 155.909L505.295 156.968C503.324 164.633 500.586 173.831 499.236 178.247L509.565 177.079C508.178 174.159 506.718 171.458 505.112 168.903L512.449 166.823C515.916 172.152 518.763 178.138 521.574 185.292Z" fill="#FD074E"/>
</svg>
